<?xml version="1.0" encoding="utf-8"?>
<!-- Generator: Adobe Illustrator 12.0.1, SVG Export Plug-In . SVG Version: 6.00 Build 51448)  -->
<!DOCTYPE svg PUBLIC "-//W3C//DTD SVG 1.1 Basic//EN" "http://www.w3.org/Graphics/SVG/1.1/DTD/svg11-basic.dtd" [
	<!ENTITY ns_svg "http://www.w3.org/2000/svg">
	<!ENTITY ns_xlink "http://www.w3.org/1999/xlink">
]>
<svg  version="1.1" baseProfile="basic" id="Layer_1" xmlns="&ns_svg;" xmlns:xlink="&ns_xlink;" width="196.38" height="185.356"
	 viewBox="0 0 196.38 185.356" overflow="visible" enable-background="new 0 0 196.38 185.356" xml:space="preserve">
<g>
	<polyline fill="none" stroke="#00FF00" points="0.495,156.057 1.248,156.057 2.001,156.057 2.755,155.188 3.509,154.326 
		4.264,153.455 5.018,153.455 5.772,154.326 6.533,154.326 7.287,155.188 8.042,156.057 8.794,156.057 9.548,151.721 
		10.304,140.457 11.057,122.258 11.811,98.002 12.565,69.4 13.319,44.272 14.074,29.54 14.828,27.807 15.581,40.806 16.334,63.339 
		17.088,91.063 17.851,116.198 18.604,136.127 19.358,149.119 20.112,155.188 20.866,156.057 21.62,156.057 22.375,156.057 
		23.127,155.188 23.881,154.326 24.636,153.455 25.39,153.455 26.144,154.326 26.898,154.326 27.652,156.057 28.406,156.057 
		29.167,156.057 29.92,153.455 30.674,144.793 31.429,130.922 32.184,111.862 32.937,89.33 33.691,68.538 34.445,56.401 
		35.199,54.668 35.953,65.072 36.708,83.27 37.46,102.329 38.214,117.06 38.969,122.258 39.723,116.198 40.477,102.329 
		41.238,84.131 41.992,69.4 42.746,63.339 43.5,67.668 44.253,82.399 45.007,103.198 45.762,122.258 46.516,138.723 47.27,145.654 
		48.024,141.326 48.778,127.457 49.533,108.397 50.286,87.596 51.041,71.132 51.793,63.339 52.555,65.935 53.31,78.071 
		54.063,96.268 54.817,116.198 55.571,132.654 56.325,145.654 57.079,153.455 57.833,156.057 58.586,156.057 59.34,156.057 
		60.095,156.057 60.849,156.057 61.603,156.057 62.357,156.057 63.111,156.057 63.866,156.057 64.625,156.057 65.379,156.057 
		66.133,156.057 66.888,156.057 67.642,156.057 68.396,156.057 69.15,156.057 69.904,156.057 70.658,156.057 71.412,156.057 
		72.166,156.057 72.919,156.057 73.673,156.057 74.428,156.057 75.182,156.057 75.943,156.057 76.697,156.057 77.452,156.057 
		78.205,156.057 78.958,156.057 79.712,156.057 80.466,156.057 81.221,156.057 81.976,156.057 82.729,156.057 83.483,156.057 
		84.237,156.057 84.991,156.057 85.745,156.057 86.499,156.057 87.261,156.057 88.014,156.057 88.768,156.057 89.522,156.057 
		90.276,156.057 91.03,156.057 91.785,156.057 92.538,156.057 93.292,156.057 94.045,156.057 94.799,156.057 95.554,156.057 
		96.309,156.057 97.062,156.057 97.816,156.057 98.57,156.057 99.332,156.057 100.084,156.057 100.838,156.057 101.592,156.057 
		102.347,156.057 103.101,156.057 103.855,156.057 104.609,156.057 105.363,156.057 106.117,156.057 106.871,156.057 
		107.625,156.057 108.378,156.057 109.132,156.057 109.887,156.057 110.648,156.057 111.402,156.057 112.156,156.057 
		112.91,156.057 113.665,156.057 114.417,156.057 115.171,156.057 115.925,156.057 116.68,156.057 117.434,156.057 118.188,156.057 
		118.942,156.057 119.696,156.057 120.45,156.057 121.204,156.057 121.964,156.057 122.719,156.057 123.473,156.057 
		124.227,156.057 124.981,156.057 125.735,156.057 126.489,156.057 127.243,156.057 127.997,156.057 128.75,156.057 
		129.504,156.057 130.258,156.057 131.013,156.057 131.767,156.057 132.521,156.057 133.275,156.057 134.036,156.057 
		134.79,155.188 135.543,154.326 136.297,153.455 137.052,153.455 137.806,153.455 138.56,154.326 139.314,155.188 140.068,156.057 
		140.822,156.057 141.576,153.455 142.33,144.793 143.083,130.922 143.837,110.993 144.591,87.596 145.354,65.935 146.107,52.073 
		146.861,50.34 147.616,59.003 148.369,78.071 149.124,101.466 149.876,122.258 150.63,138.723 151.384,149.988 152.139,155.188 
		152.893,156.057 153.646,156.057 154.401,156.057 155.155,156.057 155.909,156.057 156.663,156.057 157.423,156.057 
		158.178,156.057 158.933,156.057 159.686,156.057 160.441,156.057 161.195,156.057 161.949,156.057 162.702,156.057 
		163.457,156.057 164.209,156.057 164.963,156.057 165.717,156.057 166.472,156.057 167.226,156.057 167.979,156.057 
		168.742,156.057 169.495,156.057 170.249,156.057 171.002,156.057 171.756,156.057 172.511,156.057 173.266,156.057 
		174.019,156.057 174.774,156.057 175.528,156.057 176.282,156.057 177.035,156.057 177.79,156.057 178.542,156.057 
		179.296,156.057 180.058,156.057 180.814,156.057 181.567,156.057 182.321,156.057 183.074,156.057 183.828,156.057 
		184.582,156.057 185.335,156.057 186.089,156.057 186.844,156.057 187.598,156.057 188.352,156.057 189.107,156.057 
		189.861,156.057 190.615,156.057 191.368,156.057 192.128,156.057 192.882,156.057 193.637,156.057 194.391,156.057 
		195.146,156.057 195.9,156.057 	"/>
	<polyline fill="none" stroke="#0000FF" points="0.495,150.852 1.248,156.057 2.001,156.057 2.755,156.057 3.509,156.057 
		4.264,155.188 5.018,155.188 5.772,155.188 6.533,155.188 7.287,156.057 8.042,156.057 8.794,156.057 9.548,156.057 
		10.304,156.057 11.057,156.057 11.811,156.057 12.565,156.057 13.319,156.057 14.074,156.057 14.828,156.057 15.581,156.057 
		16.334,156.057 17.088,156.057 17.851,156.057 18.604,156.057 19.358,156.057 20.112,156.057 20.866,156.057 21.62,156.057 
		22.375,156.057 23.127,156.057 23.881,156.057 24.636,156.057 25.39,156.057 26.144,156.057 26.898,156.057 27.652,156.057 
		28.406,156.057 29.167,156.057 29.92,156.057 30.674,156.057 31.429,156.057 32.184,156.057 32.937,156.057 33.691,156.057 
		34.445,156.057 35.199,156.057 35.953,156.057 36.708,156.057 37.46,156.057 38.214,156.057 38.969,156.057 39.723,156.057 
		40.477,156.057 41.238,156.057 41.992,156.057 42.746,156.057 43.5,156.057 44.253,156.057 45.007,156.057 45.762,156.057 
		46.516,156.057 47.27,156.057 48.024,156.057 48.778,156.057 49.533,156.057 50.286,156.057 51.041,156.057 51.793,156.057 
		52.555,156.057 53.31,156.057 54.063,156.057 54.817,156.057 55.571,156.057 56.325,155.188 57.079,154.326 57.833,152.592 
		58.586,150.852 59.34,149.988 60.095,149.988 60.849,150.852 61.603,152.592 62.357,153.455 63.111,155.188 63.866,156.057 
		64.625,154.326 65.379,145.654 66.133,131.793 66.888,110.993 67.642,86.735 68.396,61.607 69.15,43.41 69.904,36.471 
		70.658,41.676 71.412,58.141 72.166,80.667 72.919,105.794 73.673,126.594 74.428,142.189 75.182,151.721 75.943,156.057 
		76.697,156.057 77.452,156.057 78.205,156.057 78.958,156.057 79.712,156.057 80.466,155.188 81.221,155.188 81.976,154.326 
		82.729,154.326 83.483,154.326 84.237,154.326 84.991,155.188 85.745,156.057 86.499,156.057 87.261,156.057 88.014,156.057 
		88.768,156.057 89.522,156.057 90.276,156.057 91.03,156.057 91.785,156.057 92.538,156.057 93.292,156.057 94.045,156.057 
		94.799,156.057 95.554,156.057 96.309,156.057 97.062,156.057 97.816,156.057 98.57,156.057 99.332,156.057 100.084,156.057 
		100.838,156.057 101.592,156.057 102.347,156.057 103.101,156.057 103.855,156.057 104.609,156.057 105.363,154.326 
		106.117,153.455 106.871,152.592 107.625,151.721 108.378,151.721 109.132,152.592 109.887,153.455 110.648,155.188 
		111.402,156.057 112.156,156.057 112.91,153.455 113.665,143.92 114.417,127.457 115.171,105.794 115.925,78.934 116.68,53.806 
		117.434,36.471 118.188,31.273 118.942,39.944 119.696,58.141 120.45,84.131 121.204,109.261 121.964,130.06 122.719,144.793 
		123.473,153.455 124.227,156.057 124.981,156.057 125.735,156.057 126.489,155.188 127.243,155.188 127.997,155.188 
		128.75,155.188 129.504,156.057 130.258,156.057 131.013,156.057 131.767,156.057 132.521,156.057 133.275,156.057 
		134.036,156.057 134.79,156.057 135.543,156.057 136.297,156.057 137.052,156.057 137.806,156.057 138.56,156.057 139.314,156.057 
		140.068,156.057 140.822,156.057 141.576,156.057 142.33,156.057 143.083,156.057 143.837,156.057 144.591,156.057 
		145.354,156.057 146.107,156.057 146.861,156.057 147.616,156.057 148.369,156.057 149.124,156.057 149.876,156.057 
		150.63,156.057 151.384,156.057 152.139,156.057 152.893,156.057 153.646,156.057 154.401,156.057 155.155,156.057 
		155.909,156.057 156.663,156.057 157.423,156.057 158.178,156.057 158.933,156.057 159.686,156.057 160.441,156.057 
		161.195,156.057 161.949,156.057 162.702,156.057 163.457,156.057 164.209,156.057 164.963,156.057 165.717,156.057 
		166.472,156.057 167.226,156.057 167.979,155.188 168.742,154.326 169.495,152.592 170.249,150.852 171.002,149.988 
		171.756,150.852 172.511,151.721 173.266,153.455 174.019,155.188 174.774,156.057 175.528,156.057 176.282,151.721 
		177.035,140.457 177.79,123.992 178.542,103.198 179.296,78.071 180.058,57.271 180.814,46.004 181.567,46.875 182.321,59.874 
		183.074,81.537 183.828,104.931 184.582,121.396 185.335,126.594 186.089,117.06 186.844,94.527 187.598,65.935 188.352,38.211 
		189.107,19.145 189.861,14.81 190.615,26.076 191.368,49.47 192.128,78.934 192.882,107.526 193.637,130.06 194.391,145.654 
		195.146,153.455 195.9,156.057 	"/>
	<path fill="none" stroke="#000000" d="M0.495,155.188l0.753-5.199l0.754-9.531l0.754-13l0.754-15.595l0.755-15.595l0.754-10.404
		l0.754-4.327l0.762,4.327L7.288,97.13l0.755,15.595l0.753,15.604l0.754,12.129l0.756,9.531l0.753,5.199l0.754,0.868h0.754h0.754
		h0.754h0.756h0.753h0.754h0.754h0.763h0.753h0.754h0.754h0.755h0.754h0.755h0.753h0.754h0.755h0.754h0.754h0.754l0.754-0.868h0.754
		l0.762-0.861h0.754h0.754l0.755,0.861l0.755,0.868h0.753h0.754h0.754h0.755h0.754h0.755h0.753h0.754h0.755h0.754h0.754h0.761h0.755
		h0.754h0.754h0.754h0.754h0.755h0.754h0.754h0.754h0.754h0.755h0.754h0.755H51.8h0.762h0.755h0.753h0.754h0.754h0.755h0.754h0.754
		h0.754h0.754h0.755h0.754h0.754h0.754h0.754l0.755-0.868h0.761l0.754-0.861l0.754-0.871l0.755-0.863h0.754h0.754h0.754l0.754,0.863
		l0.755,0.871l0.754,0.861l0.754,0.868h0.754h0.754h0.755h0.754h0.761l0.754-1.729l0.756-2.605l0.753-1.731l0.754-2.603l0.754-0.862
		l0.754,0.862l0.755,2.603l0.755,1.731l0.753,2.605l0.754,1.729l0.754-3.465l0.755-12.135l0.754-19.932l0.754-27.73l0.763-33.792
		l0.753-32.059l0.754-20.8l0.754-6.061l0.754,11.258l0.754,26.868L91.797,72l0.753,32.06l0.754,25.996l0.754,12.132l0.754-2.597
		l0.755-16.465l0.755-20.8l0.753-24.258l0.754-19.067l0.754-8.663l0.763,3.466l0.753,14.731l0.754,21.663l0.754,22.524l0.755,19.067
		l0.754,13.861l0.754,7.801l0.754,2.602h0.754h0.755h0.754h0.754h0.754h0.754h0.755h0.761h0.754l0.755-0.868h0.754l0.755-0.861
		h0.753h0.754l0.754,0.861h0.755l0.754,0.868h0.738h0.754h0.754h0.755h0.754h0.761h0.755h0.754h0.754h0.754h0.754h0.754h0.755h0.754
		h0.754h0.754l0.754-0.868l0.755-0.861h0.754l0.754-0.871l0.754,0.871h0.762l0.754,0.861l0.754,0.868h0.754h0.755h0.754h0.754h0.754
		h0.754h0.754h0.755h0.754h0.754h0.754h0.754h0.763h0.753h0.754h0.755h0.754h0.755h0.753h0.754h0.754h0.755h0.754h0.753h0.755h0.754
		h0.755l0.754-0.868l0.761-0.861h0.755l0.755-0.871h0.753l0.755,0.871l0.754,0.861l0.754,0.868h0.754h0.755h0.753h0.754h0.754h0.755
		h0.754h0.753h0.764h0.753h0.754h0.754h0.754h0.755h0.755h0.753h0.755h0.754h0.754h0.754l0.755-0.868h0.753h0.754h0.762h0.756
		l0.753,0.868h0.754h0.754h0.754h0.754h0.754h0.754h0.755h0.754h0.754c2.396,0,4.789-0.065,7.187-0.065"/>
	<path fill="none" stroke="#FF0000" d="M0.495,156.057h0.753h0.754h0.754h0.754h0.755h0.754h0.754h0.762h0.754h0.755h0.753h0.754
		h0.756h0.753h0.754h0.754h0.754h0.754h0.756h0.753h0.754h0.754l0.763-1.729l0.753-8.672l0.754-14.732l0.754-20.792l0.755-24.266
		l0.754-25.989l0.755-18.198l0.753-7.8l0.754,4.335l0.755,15.596l0.754,22.53l0.754,25.992l0.754,21.663l0.754,16.465l0.754,10.396
		l0.762,5.205h0.754h0.754h0.755h0.755h0.753h0.754h0.754h0.755h0.754h0.755h0.753h0.754h0.755h0.754h0.754h0.761h0.755h0.754h0.754
		h0.754h0.754h0.755h0.754h0.754h0.754h0.754h0.755h0.754h0.755H51.8h0.762h0.755h0.753l0.754-6.938l0.754-12.127l0.755-19.062
		L57.086,95.4l0.754-25.999l0.754-19.931l0.746-9.526l0.755,0.861l0.754,13l0.754,19.93l0.754,23.396l0.754,22.533l0.755,16.463
		l0.761,11.26l0.754,6.068l0.754,2.602h0.755h0.754h0.754h0.754h0.754h0.755h0.754h0.754l0.754-2.602l0.754-9.535l0.755-14.729
		l0.754-19.061l0.761-23.395l0.754-20.801l0.756-13.861l0.753-4.335l0.754,6.931l0.754,15.603l0.754,19.931l0.755,20.792
		l0.755,18.196l0.753,13l0.754,8.662l0.754,4.336l0.755,0.868h0.754h0.754h0.763h0.753h0.754h0.754h0.754h0.754h0.756h0.753h0.754
		h0.754h0.754h0.755h0.755h0.753h0.754h0.754h0.763h0.753h0.754h0.754h0.755h0.754l0.754-0.868l0.754-6.933l0.754-14.729l0.755-20.8
		l0.754-25.991l0.754-27.731l0.754-21.663l0.754-9.533l0.755,4.337l0.761,16.464l0.754,24.26l0.755,27.729l0.754,23.396
		l0.755,16.465l0.753,11.264l0.754,4.336h0.754h0.755h0.754h0.746h0.754h0.754h0.755l0.754-1.729l0.761-8.672l0.755-15.596
		l0.754-20.799l0.754-25.991l0.754-25.129l0.753-18.197l0.754-6.938l0.755,5.206l0.754,16.457l0.754,24.266l0.754,24.265
		l0.754,21.663l0.755,13.86l0.754,4.337l0.754-5.199l0.754-11.267l0.762-15.601l0.754-15.595l0.754-11.268l0.754-4.328l0.755,2.597
		l0.754,9.532l0.754,13.862l0.754,15.604l0.754,13.86l0.754,10.396l0.755,6.938l0.754,2.597l0.754,0.868h0.754h0.754h0.763h0.753
		h0.754h0.755l0.754-0.868l0.755-9.533l0.753-17.326l0.754-25.13l0.754-32.066l0.755-33.792l0.754-25.997l0.753-11.258l0.755,4.327
		l0.754,19.93l0.755,29.464l0.754,33.79l0.761,28.603l0.755,20.794l0.755,10.395l0.753-0.862l0.755-8.664l0.754-10.402l0.754-11.259
		l0.754-7.801l0.755-2.604l0.753,3.467l0.754,8.67l0.754,11.26l0.755,9.532l0.754,7.802l0.754,1.731l0.763-4.336l0.753-8.662
		l0.754-11.266l0.754-12.13l0.754-8.664l0.755-3.466l0.755,2.597l0.753,7.801l0.755,11.268l0.754,12.129l0.754,9.533l0.754,6.93
		l0.755,5.199l0.753,0.868c0,0,0.754,0,0.755,0c5.24,0,10.479-0.315,15.74-0.315"/>
</g>
<g>
	<text transform="matrix(1 0 0 1 2.6592 178.5205)" font-family="'CourierNewPSMT'" font-size="10.0569">G</text>
	<text transform="matrix(1 0 0 1 11.7153 178.5205)" fill="#00FF00" font-family="'CourierNewPSMT'" font-size="10.0569">A</text>
	<text transform="matrix(1 0 0 1 20.7661 178.5205)" fill="#FF0000" font-family="'CourierNewPSMT'" font-size="10.0569">T</text>
	<text transform="matrix(1 0 0 1 32.0825 178.5205)" fill="#00FF00" font-family="'CourierNewPSMT'" font-size="10.0569">A</text>
	<text transform="matrix(1 0 0 1 26.0469 167.2021)" font-family="'CourierNewPSMT'" font-size="10.0569">120</text>
	<text transform="matrix(1 0 0 1 40.377 178.5205)" fill="#00FF00" font-family="'CourierNewPSMT'" font-size="10.0569">A</text>
	<text transform="matrix(1 0 0 1 49.4351 178.5205)" fill="#00FF00" font-family="'CourierNewPSMT'" font-size="10.0569">A</text>
	<text transform="matrix(1 0 0 1 56.9761 178.5205)" fill="#FF0000" font-family="'CourierNewPSMT'" font-size="10.0569">T</text>
	<text transform="matrix(1 0 0 1 67.542 178.5205)" fill="#0000FF" font-family="'CourierNewPSMT'" font-size="10.0569">C</text>
	<text transform="matrix(1 0 0 1 75.8433 178.5205)" fill="#FF0000" font-family="'CourierNewPSMT'" font-size="10.0569">T</text>
	<text transform="matrix(1 0 0 1 86.3999 178.5205)" font-family="'CourierNewPSMT'" font-size="10.0569">G</text>
	<text transform="matrix(1 0 0 1 96.2114 178.5205)" font-family="'CourierNewPSMT'" font-size="10.0569">G</text>
	<text transform="matrix(1 0 0 1 106.7739 178.5205)" fill="#FF0000" font-family="'CourierNewPSMT'" font-size="10.0569">T</text>
	<text transform="matrix(1 0 0 1 115.0688 178.5205)" fill="#0000FF" font-family="'CourierNewPSMT'" font-size="10.0569">C</text>
	<text transform="matrix(1 0 0 1 124.1265 178.5205)" fill="#FF0000" font-family="'CourierNewPSMT'" font-size="10.0569">T</text>
	<text transform="matrix(1 0 0 1 118.0913 167.2021)" font-family="'CourierNewPSMT'" font-size="10.0569">130</text>
	<text transform="matrix(1 0 0 1 133.9341 178.5205)" fill="#FF0000" font-family="'CourierNewPSMT'" font-size="10.0569">T</text>
	<text transform="matrix(1 0 0 1 143.7417 178.5205)" fill="#00FF00" font-family="'CourierNewPSMT'" font-size="10.0569">A</text>
	<text transform="matrix(1 0 0 1 151.2866 178.5205)" fill="#FF0000" font-family="'CourierNewPSMT'" font-size="10.0569">T</text>
	<text transform="matrix(1 0 0 1 160.3394 178.5205)" fill="#FF0000" font-family="'CourierNewPSMT'" font-size="10.0569">T</text>
	<text transform="matrix(1 0 0 1 170.1479 178.5205)" fill="#FF0000" font-family="'CourierNewPSMT'" font-size="10.0569">T</text>
	<text transform="matrix(1 0 0 1 178.4468 178.5205)" fill="#0000FF" font-family="'CourierNewPSMT'" font-size="10.0569">C</text>
	<text transform="matrix(1 0 0 1 186.7456 178.5205)" fill="#0000FF" font-family="'CourierNewPSMT'" font-size="10.0569">C</text>
</g>
</svg>
